<svg width="30" height="30" viewBox="0 0 30 30" fill="none" xmlns="http://www.w3.org/2000/svg">
<path d="M26.7843 3.22287C26.1593 2.58412 25.2343 2.34787 24.3718 2.59787L4.25928 8.40912C3.34928 8.66162 2.70428 9.38287 2.53053 10.2979C2.35303 11.2304 2.97303 12.4154 3.78303 12.9104L10.0718 16.7504C10.7168 17.1454 11.5493 17.0466 12.083 16.5116L19.2843 9.31037C19.6468 8.93412 20.2468 8.93412 20.6093 9.31037C20.9718 9.67162 20.9718 10.2604 20.6093 10.6354L13.3955 17.8366C12.8605 18.3716 12.7605 19.2016 13.1543 19.8479L16.9968 26.1604C17.4468 26.9091 18.2218 27.3354 19.0718 27.3354C19.1718 27.3354 19.2843 27.3354 19.3843 27.3216C20.3593 27.1979 21.1343 26.5341 21.4218 25.5966L27.3843 5.63537C27.6468 4.78537 27.4093 3.86037 26.7843 3.22287Z" fill="white"/>
<path opacity="0.4" d="M11.8143 23.9277C12.1793 24.294 12.1793 24.8877 11.8143 25.254L10.1068 26.9602C9.92427 27.144 9.68427 27.2352 9.44427 27.2352C9.20427 27.2352 8.96427 27.144 8.78177 26.9602C8.41552 26.594 8.41552 26.0015 8.78177 25.6352L10.488 23.9277C10.8543 23.5627 11.448 23.5627 11.8143 23.9277ZM10.8346 19.1927C11.1996 19.559 11.1996 20.1527 10.8346 20.519L9.12715 22.2252C8.94465 22.409 8.70465 22.5002 8.46465 22.5002C8.22465 22.5002 7.98465 22.409 7.80215 22.2252C7.4359 21.859 7.4359 21.2665 7.80215 20.9002L9.5084 19.1927C9.87465 18.8277 10.4684 18.8277 10.8346 19.1927ZM6.13315 17.7022C6.49815 18.0685 6.49815 18.6622 6.13315 19.0285L4.42565 20.7347C4.24315 20.9185 4.00315 21.0097 3.76315 21.0097C3.52315 21.0097 3.28315 20.9185 3.10065 20.7347C2.7344 20.3685 2.7344 19.776 3.10065 19.4097L4.8069 17.7022C5.17315 17.3372 5.7669 17.3372 6.13315 17.7022Z" fill="white"/>
</svg>
