<svg width="24" height="25" viewBox="0 0 24 25" fill="none" xmlns="http://www.w3.org/2000/svg">
<g clip-path="url(#clip0_2_1284)">
<path d="M2.26958 16.2616H12.1102V18.0697H18.2616V16.2655H20.7055C20.8638 18.4158 20.8763 20.3304 18.6708 21.7897C18.6439 21.8075 18.6222 21.8318 18.5624 21.885C18.8337 22.1103 19.101 22.3329 19.3657 22.5529C19.0084 22.8945 18.7214 23.169 18.3923 23.4842C18.102 23.1848 17.7881 22.8373 17.4459 22.5207C17.3454 22.4275 17.1674 22.3894 17.0216 22.3802C16.7832 22.3657 16.5415 22.4045 16.3011 22.4052C13.1059 22.4071 9.9106 22.4065 6.71469 22.4065C6.56166 22.4065 6.39812 22.436 6.25691 22.3933C5.83066 22.2653 5.56006 22.4629 5.30654 22.7684C5.09046 23.0284 4.84417 23.2629 4.61889 23.5007C4.3148 23.1808 4.03961 22.8918 3.73486 22.5707C3.93912 22.39 4.19855 22.1602 4.49016 21.9014C4.28919 21.7576 4.13878 21.6577 3.99626 21.5474C2.92833 20.7244 2.35102 19.6329 2.27549 18.2924C2.23805 17.6284 2.26892 16.9604 2.26892 16.2616H2.26958Z" fill="white"/>
<path d="M2.27548 11.2871C2.27023 11.1682 2.26103 11.0612 2.26103 10.9541C2.26038 9.21366 2.25841 7.47384 2.26103 5.73336C2.26366 3.82081 3.59102 2.48622 5.50095 2.50001C6.14197 2.50461 6.80269 2.49148 7.41875 2.63663C8.51164 2.89474 9.19995 3.65267 9.53228 4.7206C9.59665 4.92814 9.68006 5.02863 9.90796 5.09037C11.1939 5.43912 12.0964 6.64104 12.1128 7.98219C12.1154 8.19827 12.1128 8.41435 12.1128 8.64882H6.02572C5.73542 7.11392 6.56953 5.52976 8.31329 5.0352C8.15567 4.35017 7.48115 3.7722 6.77314 3.74725C6.23786 3.7282 5.70061 3.72623 5.16533 3.74725C4.24255 3.78337 3.50038 4.63062 3.49644 5.64666C3.48987 7.39765 3.49447 9.14929 3.49447 10.9003C3.49447 11.0198 3.49447 11.1393 3.49447 11.2865H2.27417L2.27548 11.2871Z" fill="white"/>
<path d="M12.0931 15.0327C11.9644 15.0327 11.8678 15.0327 11.7713 15.0327C8.64366 15.0327 5.5154 15.0334 2.38779 15.0321C1.71459 15.0321 1.23054 14.7135 1.06043 14.1697C0.804289 13.3514 1.38423 12.5632 2.26826 12.5514C3.20877 12.5389 4.14929 12.5481 5.0898 12.5481C7.29922 12.5481 9.50799 12.5481 11.7174 12.5481C11.8356 12.5481 11.9538 12.5481 12.0931 12.5481V15.0321V15.0327Z" fill="white"/>
<path d="M17.0236 16.8711H13.3633C13.3574 16.7555 13.3475 16.6504 13.3475 16.5453C13.3462 15.2771 13.3462 14.0082 13.3475 12.7399C13.3482 11.8224 13.8493 11.318 14.7629 11.314C15.1018 11.3127 15.4407 11.3055 15.7796 11.316C16.5408 11.3403 17.038 11.8519 17.04 12.6151C17.0439 13.9385 17.0413 15.2613 17.04 16.5847C17.04 16.6708 17.0308 16.7561 17.0236 16.8711Z" fill="white"/>
<path d="M18.2833 15.0209V12.5481C18.8783 12.5481 19.4648 12.5462 20.0507 12.5488C20.3561 12.5501 20.668 12.5251 20.9669 12.5744C21.6191 12.6821 22.0434 13.2161 22.0164 13.8394C21.9902 14.4508 21.5389 14.9756 20.8986 15.0091C20.0395 15.0544 19.1765 15.0203 18.2839 15.0203L18.2833 15.0209Z" fill="white"/>
</g>
<defs>
<clipPath id="clip0_2_1284">
<rect width="21.0171" height="21" fill="white" transform="translate(1 2.5)"/>
</clipPath>
</defs>
</svg>
