<svg width="24" height="25" viewBox="0 0 24 25" fill="none" xmlns="http://www.w3.org/2000/svg">
<g clip-path="url(#clip0_2_1278)">
<path d="M12.0118 19.9597C9.01357 19.9597 6.01615 19.9597 3.01794 19.9597C2.71481 19.9597 2.57466 20.0984 2.57466 20.3977C2.57466 20.4752 2.5786 20.5527 2.57388 20.6295C2.56758 20.7225 2.55813 20.8155 2.54081 20.9062C2.47625 21.2372 2.15895 21.5023 1.77945 21.4984C1.39837 21.4946 1.08265 21.2116 1.02517 20.8481C1.01178 20.7628 1.0047 20.6752 1.0047 20.5891C1.00391 18.8279 0.9921 17.0659 1.00863 15.3046C1.01808 14.2783 1.39758 13.3853 2.12509 12.6419C2.56679 12.1907 3.09195 11.8698 3.69269 11.6651C4.1651 11.5046 4.65326 11.4558 5.15086 11.4558C9.76234 11.4574 14.3738 11.4535 18.9853 11.4589C20.3364 11.4605 21.4308 11.9969 22.2418 13.0636C22.6402 13.5884 22.8779 14.1845 22.959 14.8357C22.9866 15.055 22.9984 15.2783 22.9992 15.5C23.0023 17.2101 23.0015 18.9202 23.0008 20.6302C23.0008 20.8977 22.9338 21.1411 22.7102 21.3178C22.474 21.5046 22.2103 21.5535 21.9292 21.4395C21.6599 21.3295 21.4898 21.1271 21.4513 20.838C21.4316 20.6922 21.4339 20.5426 21.43 20.3953C21.4237 20.1574 21.3237 20.0139 21.1237 19.9698C21.0796 19.9597 21.0332 19.9605 20.9875 19.9605C17.9964 19.9605 15.0053 19.9605 12.0134 19.9605L12.0118 19.9597Z" fill="white"/>
<path d="M11.9023 4.5C13.8471 4.5 15.791 4.5 17.735 4.5C18.3861 4.5 18.9947 4.64341 19.5199 5.03953C20.1954 5.54884 20.5899 6.21938 20.623 7.06124C20.6513 7.77519 20.6387 8.4907 20.6419 9.20543C20.6442 9.66589 20.6419 10.1264 20.6419 10.5868C20.6419 10.6279 20.6395 10.6713 20.6285 10.7109C20.5946 10.8357 20.5261 10.8853 20.397 10.8612C20.2561 10.8349 20.1199 10.7783 19.9789 10.7628C19.6475 10.7271 19.3152 10.7023 18.9821 10.6853C18.7601 10.6736 18.6916 10.6341 18.6601 10.4194C18.5593 9.73876 17.9192 9.12636 17.1004 9.13566C16.1871 9.14574 15.2738 9.13798 14.3612 9.13798C13.6817 9.13798 13.1015 9.53643 12.8708 10.1643C12.8377 10.2543 12.8251 10.3519 12.8078 10.4465C12.7755 10.6163 12.7117 10.6798 12.5401 10.6822C12.1803 10.686 11.8197 10.686 11.4599 10.6822C11.2945 10.6806 11.2292 10.6163 11.1992 10.4279C11.1575 10.1636 11.0536 9.92791 10.8835 9.72093C10.5757 9.34574 10.1773 9.14186 9.68596 9.13953C8.74351 9.13488 7.80106 9.13721 6.85782 9.13876C6.06575 9.13953 5.44611 9.74884 5.34533 10.4178C5.31305 10.6341 5.2477 10.6721 5.02567 10.686C4.65798 10.7101 4.29029 10.7442 3.92338 10.7829C3.81079 10.7946 3.70293 10.8426 3.59113 10.8612C3.47066 10.8806 3.41476 10.8403 3.3809 10.724C3.36752 10.6783 3.36122 10.6295 3.36122 10.5814C3.36043 9.47674 3.34547 8.37209 3.36437 7.26744C3.38405 6.11163 3.92653 5.26202 4.98788 4.74806C5.40832 4.54574 5.86419 4.5 6.32557 4.5C8.1845 4.5 10.0434 4.5 11.9023 4.5Z" fill="white"/>
</g>
<defs>
<clipPath id="clip0_2_1278">
<rect width="22" height="17" fill="white" transform="translate(1 4.5)"/>
</clipPath>
</defs>
</svg>
