<svg width="24" height="25" viewBox="0 0 24 25" fill="none" xmlns="http://www.w3.org/2000/svg">
<path fill-rule="evenodd" clip-rule="evenodd" d="M4.80001 20.3V4.69999H4.50001C4.00295 4.69999 3.60001 4.29705 3.60001 3.79999C3.60001 3.30294 4.00295 2.89999 4.50001 2.89999H19.5C19.9971 2.89999 20.4 3.30294 20.4 3.79999C20.4 4.29705 19.9971 4.69999 19.5 4.69999H19.2V20.3H19.5C19.9971 20.3 20.4 20.7029 20.4 21.2C20.4 21.6971 19.9971 22.1 19.5 22.1H15.3C14.8029 22.1 14.4 21.6971 14.4 21.2V18.2C14.4 17.7029 13.9971 17.3 13.5 17.3H10.5C10.0029 17.3 9.60001 17.7029 9.60001 18.2V21.2C9.60001 21.6971 9.19706 22.1 8.70001 22.1H4.50001C4.00295 22.1 3.60001 21.6971 3.60001 21.2C3.60001 20.7029 4.00295 20.3 4.50001 20.3H4.80001ZM8.40001 7.09999C8.40001 6.76862 8.66864 6.49999 9.00001 6.49999H10.2C10.5314 6.49999 10.8 6.76862 10.8 7.09999V8.29999C10.8 8.63136 10.5314 8.89999 10.2 8.89999H9.00001C8.66864 8.89999 8.40001 8.63136 8.40001 8.29999V7.09999ZM9.00001 11.3C8.66864 11.3 8.40001 11.5686 8.40001 11.9V13.1C8.40001 13.4314 8.66864 13.7 9.00001 13.7H10.2C10.5314 13.7 10.8 13.4314 10.8 13.1V11.9C10.8 11.5686 10.5314 11.3 10.2 11.3H9.00001ZM13.2 7.09999C13.2 6.76862 13.4686 6.49999 13.8 6.49999H15C15.3314 6.49999 15.6 6.76862 15.6 7.09999V8.29999C15.6 8.63136 15.3314 8.89999 15 8.89999H13.8C13.4686 8.89999 13.2 8.63136 13.2 8.29999V7.09999ZM13.8 11.3C13.4686 11.3 13.2 11.5686 13.2 11.9V13.1C13.2 13.4314 13.4686 13.7 13.8 13.7H15C15.3314 13.7 15.6 13.4314 15.6 13.1V11.9C15.6 11.5686 15.3314 11.3 15 11.3H13.8Z" fill="white"/>
</svg>
