<svg width="22" height="18" viewBox="0 0 22 18" fill="none" xmlns="http://www.w3.org/2000/svg">
<g clip-path="url(#clip0_116_134)">
<path fill-rule="evenodd" clip-rule="evenodd" d="M21.5 9C21.5 9.62132 20.9963 10.125 20.375 10.125L4.4181 10.125L10.6547 16.0641C11.1026 16.4947 11.1166 17.2069 10.6859 17.6547C10.2553 18.1026 9.5431 18.1166 9.0953 17.6859L0.845301 9.81094C0.624701 9.59884 0.5 9.30602 0.5 9C0.5 8.69398 0.624701 8.40116 0.845301 8.18906L9.0953 0.314096C9.5431 -0.116604 10.2553 -0.102603 10.6859 0.345297C11.1166 0.793097 11.1026 1.5053 10.6547 1.9359L4.4181 7.875L20.375 7.875C20.9963 7.875 21.5 8.37868 21.5 9Z" fill="white"/>
</g>
<defs>
<clipPath id="clip0_116_134">
<rect width="22" height="18" fill="white" transform="matrix(-1 0 0 -1 22 18)"/>
</clipPath>
</defs>
</svg>
