<svg width="83" height="82" viewBox="0 0 83 82" fill="none" xmlns="http://www.w3.org/2000/svg">
<rect x="1" y="0.5" width="81" height="81" rx="40.5" stroke="url(#paint0_linear_2_2117)"/>
<rect x="1" y="0.5" width="81" height="81" rx="40.5" stroke="url(#paint1_linear_2_2117)"/>
<rect x="11" y="10.5" width="61" height="61" rx="30.5" stroke="url(#paint2_linear_2_2117)"/>
<rect x="11" y="10.5" width="61" height="61" rx="30.5" stroke="url(#paint3_linear_2_2117)"/>
<path fill-rule="evenodd" clip-rule="evenodd" d="M26.2 28.675C26.2 27.9709 26.7708 27.4 27.475 27.4H45.325C46.0292 27.4 46.6 27.9709 46.6 28.675C46.6 29.3792 46.0292 29.95 45.325 29.95H44.9V53.325C44.9 54.0292 44.3292 54.6 43.625 54.6H41.075C40.3708 54.6 39.8 54.0292 39.8 53.325V49.075C39.8 48.3709 39.2292 47.8 38.525 47.8H34.275C33.5708 47.8 33 48.3709 33 49.075V53.325C33 54.0292 32.4292 54.6 31.725 54.6H27.475C26.7708 54.6 26.2 54.0292 26.2 53.325C26.2 52.6209 26.7708 52.05 27.475 52.05H27.9V29.95H27.475C26.7708 29.95 26.2 29.3792 26.2 28.675ZM31.3 33.35C31.3 32.8806 31.6806 32.5 32.15 32.5H33.85C34.3194 32.5 34.7 32.8806 34.7 33.35V35.05C34.7 35.5195 34.3194 35.9 33.85 35.9H32.15C31.6806 35.9 31.3 35.5195 31.3 35.05V33.35ZM32.15 39.3C31.6806 39.3 31.3 39.6806 31.3 40.15V41.85C31.3 42.3195 31.6806 42.7 32.15 42.7H33.85C34.3194 42.7 34.7 42.3195 34.7 41.85V40.15C34.7 39.6806 34.3194 39.3 33.85 39.3H32.15ZM38.1 33.35C38.1 32.8806 38.4806 32.5 38.95 32.5H40.65C41.1194 32.5 41.5 32.8806 41.5 33.35V35.05C41.5 35.5195 41.1194 35.9 40.65 35.9H38.95C38.4806 35.9 38.1 35.5195 38.1 35.05V33.35ZM38.95 39.3C38.4806 39.3 38.1 39.6806 38.1 40.15V41.85C38.1 42.3195 38.4806 42.7 38.95 42.7H40.65C41.1194 42.7 41.5 42.3195 41.5 41.85V40.15C41.5 39.6806 41.1194 39.3 40.65 39.3H38.95Z" fill="#A685FA"/>
<path fill-rule="evenodd" clip-rule="evenodd" d="M48.725 34.2C48.0208 34.2 47.45 34.7709 47.45 35.475V52.9C47.45 53.8389 48.2111 54.6 49.15 54.6H55.525C56.2292 54.6 56.8 54.0292 56.8 53.325C56.8 52.6209 56.2292 52.05 55.525 52.05H55.1V36.75H55.525C56.2292 36.75 56.8 36.1792 56.8 35.475C56.8 34.7709 56.2292 34.2 55.525 34.2H48.725ZM49.575 40.15C49.575 39.6806 49.9556 39.3 50.425 39.3H52.125C52.5944 39.3 52.975 39.6806 52.975 40.15V41.85C52.975 42.3195 52.5944 42.7 52.125 42.7H50.425C49.9556 42.7 49.575 42.3195 49.575 41.85V40.15ZM50.425 46.1C49.9556 46.1 49.575 46.4806 49.575 46.95V48.65C49.575 49.1195 49.9556 49.5 50.425 49.5H52.125C52.5944 49.5 52.975 49.1195 52.975 48.65V46.95C52.975 46.4806 52.5944 46.1 52.125 46.1H50.425Z" fill="#A685FA"/>
<defs>
<linearGradient id="paint0_linear_2_2117" x1="7.25" y1="86.5" x2="86.25" y2="-5.5" gradientUnits="userSpaceOnUse">
<stop stop-color="#A685FA"/>
<stop offset="0.323723" stop-color="#A685FA" stop-opacity="0"/>
</linearGradient>
<linearGradient id="paint1_linear_2_2117" x1="82.25" y1="-10.5" x2="7.25" y2="82" gradientUnits="userSpaceOnUse">
<stop stop-color="#A685FA"/>
<stop offset="0.576615" stop-color="#A685FA" stop-opacity="0"/>
</linearGradient>
<linearGradient id="paint2_linear_2_2117" x1="3.75" y1="13.5" x2="72.25" y2="72" gradientUnits="userSpaceOnUse">
<stop stop-color="#A685FA"/>
<stop offset="0.323723" stop-color="#A685FA" stop-opacity="0"/>
</linearGradient>
<linearGradient id="paint3_linear_2_2117" x1="84.75" y1="86" x2="12.75" y2="35" gradientUnits="userSpaceOnUse">
<stop stop-color="#A685FA"/>
<stop offset="0.576615" stop-color="#A685FA" stop-opacity="0"/>
</linearGradient>
</defs>
</svg>
