<svg width="546" height="308" viewBox="0 0 546 308" fill="none" xmlns="http://www.w3.org/2000/svg">
<g clip-path="url(#clip0_2_1722)">
<path fill-rule="evenodd" clip-rule="evenodd" d="M118.534 4.66124C118.95 4.06614 119.55 4.28254 119.176 1.70738C117.777 -2.51026 119.559 2.4994 119.394 1.78312C119.187 3.02742 118.423 2.4215 117.955 2.35442C118.099 2.91273 118.293 3.81295 118.534 4.66124Z" fill="#1A1A1A"/>
<path fill-rule="evenodd" clip-rule="evenodd" d="M29.6828 262.733C26.4472 257.356 23.8078 251.442 21.2184 246.166C19.8411 248.291 15.894 271.543 10.4411 308H22.2389C25.8118 281.238 28.4686 264.642 29.6828 262.733Z" fill="#1A1A1A"/>
<path fill-rule="evenodd" clip-rule="evenodd" d="M19.58 247.308C16.9645 242.316 14.534 237.562 12.0752 233.95C10.737 235.887 5.9609 264.387 -0.606018 308H10.0582C14.8299 272.201 18.2984 249.358 19.58 247.308Z" fill="#1A1A1A"/>
<path fill-rule="evenodd" clip-rule="evenodd" d="M10.8981 232.5C8.69385 229.36 6.58973 226.378 4.51173 223.543C2.05077 237.772 -0.440661 251.812 -2.832 265.765C-5.26467 279.935 -7.66471 294.034 -10.0016 307.97L-9.84498 307.998H-0.257884C3.31497 283.201 7.10978 257.949 10.8981 232.498V232.5Z" fill="#1A1A1A"/>
<path fill-rule="evenodd" clip-rule="evenodd" d="M3.64789 222.068C1.80706 219.131 0.0510921 216.519 -1.62001 214.059C-4.78815 229.678 -7.95194 245.127 -10.9982 260.279C-14.0728 275.585 -17.0908 290.716 -20 305.553V306.161C-17.2366 306.682 -14.397 307.199 -11.4813 307.671C-9.103 293.625 -6.58764 279.357 -4.05051 264.967C-1.55691 250.818 1.09771 236.534 3.64789 222.068Z" fill="#1A1A1A"/>
<path fill-rule="evenodd" clip-rule="evenodd" d="M120.499 308C114.226 301.906 108.264 296.236 102.606 290.45C99.125 296.169 95.4847 302.071 91.8531 308H120.499Z" fill="#1A1A1A"/>
<path fill-rule="evenodd" clip-rule="evenodd" d="M99.3775 287.526C92.9019 280.723 86.8942 275.083 81.2412 269.875C74.8549 278.673 68.9364 287.215 62.6915 296.682C65.4832 300.101 68.3336 303.94 71.3168 308.002H86.5744C90.874 300.976 95.1388 294.183 99.3775 287.526Z" fill="#1A1A1A"/>
<path fill-rule="evenodd" clip-rule="evenodd" d="M78.5931 267.085C72.9922 262.086 68.0594 257.334 63.2702 252.762C57.6716 260.264 51.9272 268.267 46.3264 276.161C50.602 281.625 55.3216 287.213 60.1761 293.386C66.347 284.464 72.2568 275.815 78.5931 267.085Z" fill="#1A1A1A"/>
<path fill-rule="evenodd" clip-rule="evenodd" d="M60.9507 250.658C56.5336 246.791 52.2993 242.866 48.3347 239.219C43.3715 245.791 38.2232 252.175 33.0076 258.985C36.6392 263.467 40.3426 268.197 44.2897 273.519C49.8492 265.856 55.4696 257.951 60.9529 250.658H60.9507Z" fill="#1A1A1A"/>
<path fill-rule="evenodd" clip-rule="evenodd" d="M34.5742 225.805C31.5344 222.795 28.5425 220.109 25.6529 217.512C21.5557 222.362 17.0798 227.696 12.9956 232.853C15.3108 235.965 17.998 239.289 20.6766 243.076C25.3287 236.986 29.872 231.676 34.5742 225.805Z" fill="#1A1A1A"/>
<path fill-rule="evenodd" clip-rule="evenodd" d="M23.9732 216.621C21.3903 214.093 18.7771 211.799 16.5054 209.237C12.8412 213.559 8.99848 218.012 5.4278 222.334C7.37524 225.253 9.54681 228.179 11.8141 231.297C15.7765 226.441 19.9999 221.375 23.9732 216.621Z" fill="#1A1A1A"/>
<path fill-rule="evenodd" clip-rule="evenodd" d="M14.8604 207.761C12.7606 205.439 10.7479 203.325 8.82003 201.224C5.47129 205.035 2.01811 209.062 -1.15656 212.816C0.381819 215.225 2.19871 217.666 4.10264 220.354C7.67115 216.078 11.4464 211.795 14.8626 207.761H14.8604Z" fill="#1A1A1A"/>
<path fill-rule="evenodd" clip-rule="evenodd" d="M7.60808 200.053C5.77378 198.253 4.14185 196.379 2.39894 194.641C-0.501565 197.906 -3.56091 201.252 -6.46576 204.517C-5.24289 206.87 -3.81331 209.181 -2.49906 211.667C0.869263 207.885 4.38337 203.875 7.60808 200.053Z" fill="#1A1A1A"/>
<path fill-rule="evenodd" clip-rule="evenodd" d="M1.7222 193.732C0.188178 192.079 -1.20876 190.159 -2.41204 188.45C-5.11236 191.363 -7.65166 194.232 -10.5369 197.333C-9.35105 199.423 -8.15212 201.399 -6.88356 203.546C-4.04834 200.382 -1.11737 197.099 1.72438 193.732H1.7222Z" fill="#1A1A1A"/>
<path fill-rule="evenodd" clip-rule="evenodd" d="M6.45044 132.238C8.22599 131.283 9.89275 130.385 11.7205 129.654C11.7183 129.916 11.7727 130.074 11.9381 130.056C9.99719 130.965 7.94095 132.168 6.32642 133.032C6.33294 132.679 6.33294 132.577 6.45044 132.238Z" fill="#1A1A1A"/>
<path fill-rule="evenodd" clip-rule="evenodd" d="M184.989 297.92C174.029 290.543 164.54 283.555 154.637 277.133C148.732 287.152 142.593 297.057 136.394 308.002H179.595C181.377 304.605 183.174 301.244 184.989 297.92Z" fill="#1A1A1A"/>
<path fill-rule="evenodd" clip-rule="evenodd" d="M150.198 274.287C141.488 268.148 133.341 262.268 125.802 256.88C119.479 266.291 113.216 275.668 106.98 285.624C114.3 292.4 121.792 299.943 130.354 307.269C136.919 295.732 143.742 284.964 150.198 274.287Z" fill="#1A1A1A"/>
<path fill-rule="evenodd" clip-rule="evenodd" d="M122.194 254.367C114.97 250.187 108.577 245.575 102.361 241.282C96.6249 248.96 90.6999 257.01 84.9728 265.408C90.8043 270.872 96.7859 276.449 103.49 282.846C109.878 272.826 115.849 263.387 122.194 254.367Z" fill="#1A1A1A"/>
<path fill-rule="evenodd" clip-rule="evenodd" d="M99.5297 238.999C93.5416 235.142 88.0822 231.234 82.823 227.951C77.5595 234.524 71.9587 241.974 66.6124 249.574C71.5082 253.874 76.7261 258.07 82.3574 262.887C87.869 254.863 93.7548 246.889 99.5297 238.999Z" fill="#1A1A1A"/>
<path fill-rule="evenodd" clip-rule="evenodd" d="M80.3164 226.35C75.3074 223.379 70.7815 220.215 66.2926 217.631C61.3011 223.498 56.5162 229.598 51.418 236.153C55.4261 239.646 59.8367 243.208 64.2625 247.166C69.5543 240.226 75.0398 232.875 80.3164 226.35Z" fill="#1A1A1A"/>
<path fill-rule="evenodd" clip-rule="evenodd" d="M20.6179 126.308C19.4538 126.189 18.4006 126.064 17.4606 125.882C15.5328 127.78 13.7638 129.55 11.8751 131.35C12.8172 131.48 13.705 131.788 14.7059 132.021C16.6512 130.186 18.529 128.278 20.6179 126.308Z" fill="#1A1A1A"/>
<path fill-rule="evenodd" clip-rule="evenodd" d="M50.5955 207.045C47.051 204.927 43.8415 202.682 40.5428 200.622C36.4564 205.478 32.2482 210.358 28.1183 215.32C31.0623 217.69 34.1151 220.313 37.4008 222.948C41.7504 217.599 46.1131 212.366 50.5955 207.045Z" fill="#1A1A1A"/>
<path fill-rule="evenodd" clip-rule="evenodd" d="M38.7019 199.962C35.7622 197.9 32.7965 196.043 29.9765 194.145C26.4667 198.19 22.7959 202.421 19.2731 206.692C21.671 209.084 24.219 211.349 26.8693 213.814C30.762 209.315 34.7265 204.63 38.7019 199.962Z" fill="#1A1A1A"/>
<path fill-rule="evenodd" clip-rule="evenodd" d="M28.2206 193.022C25.5725 191.414 23.4401 189.534 21.0857 188.002C17.7413 191.733 14.3665 195.424 11.2027 199.105C13.1306 201.122 15.2695 203.091 17.5629 205.301C21.2076 200.86 24.7652 196.866 28.2184 193.022H28.2206Z" fill="#1A1A1A"/>
<path fill-rule="evenodd" clip-rule="evenodd" d="M19.7541 186.978C17.5477 185.433 15.5436 183.866 13.4374 182.657C10.5151 185.821 7.44488 189.114 4.33984 192.817C6.01965 194.561 7.77997 196.264 9.74482 198.246C12.9717 194.593 16.4097 190.625 19.7541 186.978Z" fill="#1A1A1A"/>
<path fill-rule="evenodd" clip-rule="evenodd" d="M12.6932 181.992C10.848 180.527 9.07681 179.294 7.55802 177.874C4.88164 180.772 2.1204 183.776 -0.545105 186.597C0.845307 188.238 2.2466 190.051 3.909 191.828C6.82255 188.42 9.76875 185.206 12.6932 181.99V181.992Z" fill="#1A1A1A"/>
<path fill-rule="evenodd" clip-rule="evenodd" d="M6.47223 176.903C4.85117 175.847 3.54344 174.438 2.24224 173.228C-0.310112 175.886 -2.8864 178.681 -5.42352 181.527C-4.06357 182.761 -3.00608 184.407 -1.75492 185.907C0.912753 182.949 3.79802 179.824 6.47223 176.905V176.903Z" fill="#1A1A1A"/>
<path fill-rule="evenodd" clip-rule="evenodd" d="M1.52855 172.847C0.116374 171.819 -0.806216 170.45 -1.96381 169.275C-4.14843 171.547 -6.40921 173.966 -8.50244 176.273C-7.47106 177.563 -6.55935 179.004 -5.51926 180.493C-3.17144 177.937 -0.84103 175.375 1.52855 172.847Z" fill="#1A1A1A"/>
<path fill-rule="evenodd" clip-rule="evenodd" d="M366.162 194.215C348.294 190.454 331.874 186.747 316.41 183.219C310.45 192.83 304.366 202.007 298.67 211.856C313.671 216.03 330.221 221.41 348.546 226.889C354.508 215.547 360.288 204.818 366.165 194.215H366.162Z" fill="#1A1A1A"/>
<path fill-rule="evenodd" clip-rule="evenodd" d="M263.113 183.362C250.639 180.597 239.663 177.87 228.74 175.808C223.383 183.061 217.549 190.575 211.733 198.452C222.391 201.689 233.577 205.165 245.599 209.01C251.2 200.371 257.297 191.499 263.113 183.36V183.362Z" fill="#1A1A1A"/>
<path fill-rule="evenodd" clip-rule="evenodd" d="M248.437 126.906C238.501 126.507 229.206 125.906 220.237 125.43C215.191 130.939 210.251 136.313 205.504 141.896C214.203 142.686 223.442 143.69 233.27 145.127C238.175 138.834 243.071 132.74 248.437 126.906Z" fill="#1A1A1A"/>
<path fill-rule="evenodd" clip-rule="evenodd" d="M301.225 308C288.489 301.246 276.571 294.858 265.348 288.701C262.141 295.005 258.927 301.434 255.75 308H301.222H301.225Z" fill="#1A1A1A"/>
<path fill-rule="evenodd" clip-rule="evenodd" d="M257.723 284.748C243.101 276.973 230.218 269.476 217.613 262.768C211 274.207 204.226 286.509 197.485 298.788C201.611 301.839 205.81 304.899 210.117 308H246.374C250.214 300.054 253.99 292.33 257.723 284.748Z" fill="#1A1A1A"/>
<path fill-rule="evenodd" clip-rule="evenodd" d="M211.781 259.758C200.368 254.158 189.833 248.955 180.154 243.798C173.918 253.266 167.275 263.428 161.276 273.913C170.704 280.444 180.846 287.146 191.998 294.365C198.441 282.272 205.166 271.039 211.781 259.758Z" fill="#1A1A1A"/>
<path fill-rule="evenodd" clip-rule="evenodd" d="M174.856 242.362C165.427 237.54 156.835 233.325 148.688 229.297C143.072 237.278 137.147 245.536 131.192 253.935C139.014 259.262 147.578 265.136 156.598 271.314C162.786 260.892 168.754 251.673 174.856 242.359V242.362Z" fill="#1A1A1A"/>
<path fill-rule="evenodd" clip-rule="evenodd" d="M143.664 226.361C136.135 222.89 129.027 219.505 122.294 216.138C116.922 223.022 111.526 230.286 106.123 237.75C112.496 242.162 119.165 246.378 126.446 250.587C132.088 242.606 137.922 234.439 143.664 226.363V226.361Z" fill="#1A1A1A"/>
<path fill-rule="evenodd" clip-rule="evenodd" d="M118.402 214.167C112.283 210.709 106.425 208.157 100.613 205.63C95.5566 212.065 90.367 218.642 85.0338 225.288C90.5302 228.371 96.2768 231.95 102.069 235.926C107.435 228.57 113.04 221.198 118.402 214.167Z" fill="#1A1A1A"/>
<path fill-rule="evenodd" clip-rule="evenodd" d="M98.0697 204.922C92.9063 202.423 87.8081 200.073 82.8448 197.993C78.4495 203.537 73.7995 209.062 69.2105 214.589C73.7168 217.378 78.4886 220.382 83.3279 223.602C88.3064 217.274 93.3327 210.942 98.0675 204.922H98.0697Z" fill="#1A1A1A"/>
<path fill-rule="evenodd" clip-rule="evenodd" d="M65.2678 189.716C61.1662 188.227 57.5846 186.558 54.027 184.916C50.1995 189.227 46.2198 193.754 42.5533 198.019C45.7846 200.103 48.9266 202.347 52.7823 204.323C56.8252 199.46 61.003 194.548 65.2678 189.714V189.716Z" fill="#1A1A1A"/>
<path fill-rule="evenodd" clip-rule="evenodd" d="M52.1361 184.146C48.6807 182.51 45.5605 180.88 42.4902 179.675C38.9261 183.542 35.6274 187.307 31.9392 191.488C34.7505 193.317 37.6445 195.082 40.6364 197.106C44.5552 192.715 48.2368 188.394 52.1361 184.146Z" fill="#1A1A1A"/>
<path fill-rule="evenodd" clip-rule="evenodd" d="M40.9606 179.073C38.1601 177.755 35.6187 176.388 32.9815 175.245C29.6327 178.829 26.3057 182.345 23.3269 185.894C25.5006 187.495 28.0574 189.03 30.5771 190.677C34.1543 186.719 37.577 182.884 40.9584 179.073H40.9606Z" fill="#1A1A1A"/>
<path fill-rule="evenodd" clip-rule="evenodd" d="M31.0601 174.745C28.5056 173.598 26.2143 172.518 23.9949 171.281C21.3403 174.148 18.1896 177.517 15.4936 180.601C17.4171 181.992 19.6017 183.377 21.8103 184.946C24.7956 181.482 28.0029 178.069 31.0601 174.745Z" fill="#1A1A1A"/>
<path fill-rule="evenodd" clip-rule="evenodd" d="M22.7677 170.655C20.6353 169.707 18.5094 168.77 16.6381 167.816C14.0357 170.577 11.5334 173.308 8.94623 176.007C10.5847 177.245 12.4756 178.387 14.2598 179.915C17.0776 176.734 19.8128 173.696 22.7677 170.657V170.655Z" fill="#1A1A1A"/>
<path fill-rule="evenodd" clip-rule="evenodd" d="M16.092 167.288C14.2316 166.403 12.6214 165.414 10.8437 164.613C8.59159 166.92 6.20678 169.459 3.80457 171.951C5.28854 173.064 6.72247 174.319 8.34353 175.598C10.8676 172.821 13.4896 170.106 16.092 167.288Z" fill="#1A1A1A"/>
<path fill-rule="evenodd" clip-rule="evenodd" d="M10.0756 163.834C8.66123 162.789 7.25776 161.807 5.85864 161.069C3.55217 163.488 1.46546 165.687 -0.636475 167.929C0.462364 169.11 1.68741 170.207 2.9799 171.376C5.38212 168.796 7.76475 166.338 10.0756 163.832V163.834Z" fill="#1A1A1A"/>
<path fill-rule="evenodd" clip-rule="evenodd" d="M5.04485 160.541C3.77194 159.848 2.5643 159.121 1.53509 158.212C-0.418881 160.279 -2.20313 162.149 -4.30072 164.386C-3.39554 165.392 -2.48383 166.375 -1.45027 167.39C0.649495 165.208 2.73402 163.062 5.04485 160.541Z" fill="#1A1A1A"/>
<path fill-rule="evenodd" clip-rule="evenodd" d="M199.909 152.941C191.593 151.798 183.668 150.822 175.976 149.619C171.178 155.373 166.346 160.922 161.258 166.697C168.589 168.242 176.392 169.701 184.704 171.752C189.809 165.317 194.926 159.121 199.911 152.941H199.909Z" fill="#1A1A1A"/>
<path fill-rule="evenodd" clip-rule="evenodd" d="M45.58 123.316C43.3171 123.333 41.1716 123.337 39.1437 123.372C36.7676 125.752 34.3175 128.074 32.0262 130.385C34.0063 130.351 35.7231 130.682 37.8903 130.76C40.3926 128.26 42.9363 125.767 45.5822 123.313L45.58 123.316Z" fill="#1A1A1A"/>
<path fill-rule="evenodd" clip-rule="evenodd" d="M45.2232 115.921C43.1713 116.17 41.226 116.358 39.3417 116.512C37.0352 118.676 34.831 120.756 32.6725 122.798C34.4067 122.809 36.1975 122.788 38.0448 122.714C40.36 120.511 42.821 118.187 45.2232 115.921Z" fill="#1A1A1A"/>
<path fill-rule="evenodd" clip-rule="evenodd" d="M439.332 308C433.268 305.444 427.343 302.928 421.564 300.441C420.593 302.923 419.64 305.444 418.7 308H439.334H439.332Z" fill="#1A1A1A"/>
<path fill-rule="evenodd" clip-rule="evenodd" d="M195.446 98.6373C188.275 99.0117 181.464 99.3406 174.978 99.6479C170.978 103.612 167.02 107.633 162.938 111.472C169.427 111.511 175.92 111.42 182.904 111.325C186.956 107.031 191.245 102.833 195.444 98.6373H195.446Z" fill="#1A1A1A"/>
<path fill-rule="evenodd" clip-rule="evenodd" d="M334.707 263.926C316.456 256.469 299.719 249.875 283.791 243.779C277.585 255.239 270.942 267.555 264.884 280.749C280.521 288.916 296.899 297.208 315.209 306.08C321.4 291.744 328.086 277.539 334.705 263.926H334.707Z" fill="#1A1A1A"/>
<path fill-rule="evenodd" clip-rule="evenodd" d="M231.371 223.295C219.823 219.005 208.831 215.19 198.639 211.436C192.703 219.921 186.654 228.917 180.77 238.012C190.511 242.993 201.241 248.053 212.205 253.171C218.594 243.151 224.969 232.838 231.369 223.297L231.371 223.295Z" fill="#1A1A1A"/>
<path fill-rule="evenodd" clip-rule="evenodd" d="M161.293 199.235C153.314 196.537 146.033 194.072 139.101 191.534C134.075 197.718 128.815 204.437 123.769 211.345C130.371 214.53 137.597 217.911 144.893 221.403C150.168 213.73 155.849 206.21 161.295 199.235H161.293Z" fill="#1A1A1A"/>
<path fill-rule="evenodd" clip-rule="evenodd" d="M135.141 190.307C128.533 188.091 122.342 186.132 116.408 184.343C111.439 190.205 106.615 196.156 101.645 202.074C107.289 204.483 113.04 206.902 119.261 209.912C124.651 203.001 129.814 196.344 135.141 190.307Z" fill="#1A1A1A"/>
<path fill-rule="evenodd" clip-rule="evenodd" d="M113.852 183.691C108.351 181.919 103.013 180.175 97.776 178.402C93.4132 183.57 89.0483 188.649 84.5877 193.918C89.4117 196.076 94.5055 198.497 99.6886 200.83C104.541 194.985 109.332 189.209 113.849 183.689L113.852 183.691Z" fill="#1A1A1A"/>
<path fill-rule="evenodd" clip-rule="evenodd" d="M94.3163 177.353C89.6228 175.94 85.0251 174.581 80.8256 173.228C76.4389 178.112 72.2742 182.657 68.1661 187.541C72.1045 189.093 76.3432 190.852 80.9844 193.068C85.3624 187.508 89.9753 182.3 94.3163 177.353Z" fill="#1A1A1A"/>
<path fill-rule="evenodd" clip-rule="evenodd" d="M78.7672 172.791C74.5002 171.616 70.6771 170.27 66.8344 169.166C63.0701 173.228 59.2318 177.595 55.6545 181.826C59.1251 183.343 62.6936 185.029 66.8366 186.433C70.6836 182.042 74.7678 177.288 78.765 172.791H78.7672Z" fill="#1A1A1A"/>
<path fill-rule="evenodd" clip-rule="evenodd" d="M64.7891 168.509C61.1118 167.52 57.6499 166.663 54.3816 165.708C50.9328 169.467 47.3839 173.165 44.1091 176.846C47.101 177.983 50.3801 179.322 53.6353 180.93C57.2756 176.669 61.0226 172.616 64.7891 168.509Z" fill="#1A1A1A"/>
<path fill-rule="evenodd" clip-rule="evenodd" d="M52.8758 165.237C49.7599 164.38 46.7789 163.471 43.9263 162.475C40.7386 165.905 37.5204 169.324 34.5154 172.659C37.0265 173.862 39.7986 175.057 42.6447 176.176C46.05 172.575 49.4161 168.872 52.878 165.237H52.8758Z" fill="#1A1A1A"/>
<path fill-rule="evenodd" clip-rule="evenodd" d="M41.9701 162.131C39.2111 161.296 36.761 160.355 34.3936 159.61C31.4626 162.547 28.5774 165.557 25.7247 168.476C27.8245 169.777 30.2311 170.952 32.8356 172.003C35.9059 168.641 38.8912 165.399 41.9723 162.131H41.9701Z" fill="#1A1A1A"/>
<path fill-rule="evenodd" clip-rule="evenodd" d="M32.6529 159.467C30.3595 158.677 28.0791 158.013 25.8684 157.405C23.4509 159.933 20.7833 162.694 18.331 165.379C20.3176 166.197 22.2563 167.128 24.3844 168.037C27.0608 165.23 29.8373 162.408 32.6529 159.465V159.467Z" fill="#1A1A1A"/>
<path fill-rule="evenodd" clip-rule="evenodd" d="M25.2656 156.944C23.3574 156.165 21.4643 155.444 19.519 154.804C17.2082 157.195 14.7124 159.87 12.4321 162.285C14.151 163.148 15.8178 164.068 17.6129 164.955C20.1239 162.298 22.7372 159.684 25.2678 156.946L25.2656 156.944Z" fill="#1A1A1A"/>
<path fill-rule="evenodd" clip-rule="evenodd" d="M18.6335 154.265C16.8775 153.612 15.3021 153.034 13.6745 152.538C11.4181 154.769 9.20738 156.951 7.04016 159.275C8.49367 159.974 9.89714 160.82 11.3659 161.746C13.7659 159.288 16.1486 156.743 18.6313 154.265H18.6335Z" fill="#1A1A1A"/>
<path fill-rule="evenodd" clip-rule="evenodd" d="M146.464 146.592C140.233 145.955 134.233 145.473 128.48 144.843C124.226 149.42 119.888 154.107 115.56 158.729C121.111 159.66 126.653 160.774 132.876 162.034C137.415 156.786 141.906 151.567 146.464 146.592Z" fill="#1A1A1A"/>
<path fill-rule="evenodd" clip-rule="evenodd" d="M125.867 144.428C120.442 143.746 115.142 143.285 110.381 142.651C106.212 146.927 102.089 151.3 98.2177 155.583C102.931 156.496 107.794 157.418 113.047 158.258C117.216 153.772 121.611 148.989 125.867 144.428Z" fill="#1A1A1A"/>
<path fill-rule="evenodd" clip-rule="evenodd" d="M108.018 142.389C103.07 141.913 98.6333 141.491 94.3293 141.078C90.602 144.86 86.6918 148.916 82.971 152.8C87.1096 153.579 91.3896 154.367 95.896 155.321C99.817 150.902 103.953 146.54 108.018 142.389Z" fill="#1A1A1A"/>
<path fill-rule="evenodd" clip-rule="evenodd" d="M92.2992 140.844C88.0866 140.441 84.0873 140.197 80.2685 139.844C76.7718 143.371 73.0532 147.273 69.6783 150.744C73.3143 151.357 77.1265 151.811 81.0323 152.426C84.5986 148.706 88.574 144.65 92.3014 140.844H92.2992Z" fill="#1A1A1A"/>
<path fill-rule="evenodd" clip-rule="evenodd" d="M78.3994 139.708C74.7134 139.299 71.2689 138.799 67.8114 138.663C64.5627 141.894 61.2357 145.256 57.9523 148.732C61.0508 149.266 64.3495 149.879 67.9071 150.539C71.3298 146.886 74.9593 143.229 78.3994 139.708Z" fill="#1A1A1A"/>
<path fill-rule="evenodd" clip-rule="evenodd" d="M66.2099 138.606C62.9896 138.299 60.0194 138.016 57.0058 137.817C53.8355 140.879 50.6499 144.029 47.8952 146.955C50.5368 147.483 53.3655 148.028 56.4901 148.42C59.6691 145.029 62.8329 141.826 66.2077 138.606H66.2099Z" fill="#1A1A1A"/>
<path fill-rule="evenodd" clip-rule="evenodd" d="M55.6502 137.715C52.7627 137.421 49.9493 137.232 47.4296 136.96C44.516 139.794 41.6481 142.718 38.8129 145.542C41.1869 146.098 43.9089 146.382 46.4656 146.758C49.4553 143.8 52.4168 140.777 55.6502 137.717V137.715Z" fill="#1A1A1A"/>
<path fill-rule="evenodd" clip-rule="evenodd" d="M45.9782 137.005C43.4171 136.778 41.0323 136.551 38.7716 136.341C36.2954 138.903 33.6864 141.48 31.0579 143.99C33.2186 144.354 35.5099 144.906 37.6923 145.393C40.4144 142.564 43.1234 139.879 45.9782 137.005Z" fill="#1A1A1A"/>
<path fill-rule="evenodd" clip-rule="evenodd" d="M37.3855 136.191C35.1965 136.038 33.2404 135.782 31.2364 135.685C28.8494 137.951 26.4515 140.307 24.0428 142.698C25.8923 143.04 27.6331 143.454 29.6044 143.778C32.1764 141.262 34.8462 138.689 37.3855 136.189V136.191Z" fill="#1A1A1A"/>
<path fill-rule="evenodd" clip-rule="evenodd" d="M30.0875 135.482C28.2031 135.254 26.5494 135.051 24.7913 134.897C22.5088 137.124 20.2132 139.282 17.9633 141.599C19.5082 141.974 21.1706 142.246 22.8961 142.683C25.2504 140.275 27.7048 137.849 30.0897 135.482H30.0875Z" fill="#1A1A1A"/>
<path fill-rule="evenodd" clip-rule="evenodd" d="M24.0515 134.856C22.463 134.594 21.1053 134.259 19.6953 133.993C17.6325 136.055 15.5044 138.145 13.5875 140.082C14.8321 140.452 16.2508 140.809 17.5607 141.246C19.6974 139.111 21.9365 136.942 24.0515 134.856Z" fill="#1A1A1A"/>
<path fill-rule="evenodd" clip-rule="evenodd" d="M18.7966 133.811C17.5607 133.566 16.216 133.493 15.0976 133.192C13.1436 135.118 11.1766 137.027 9.37274 138.866C10.3802 139.206 11.392 139.576 12.5757 139.894C14.5471 137.964 16.6795 135.964 18.7988 133.811H18.7966Z" fill="#1A1A1A"/>
<path fill-rule="evenodd" clip-rule="evenodd" d="M4.74455 134.971C4.36377 134.646 4.04391 134.142 3.77192 133.783C2.47289 135.157 1.17387 136.367 0.0902622 137.583C0.070679 138.18 0.279568 138.708 0.542854 139.219C1.9659 137.81 3.27363 136.464 4.74238 134.971H4.74455Z" fill="#1A1A1A"/>
<path fill-rule="evenodd" clip-rule="evenodd" d="M30.0788 123.753C33.186 123.095 36.2388 122.435 39.7442 121.742C40.5689 121.323 41.3457 121.13 42.3379 120.76C38.6171 121.669 35.2314 122.389 31.9588 123.162C31.1929 123.679 30.6815 123.441 30.0788 123.753Z" fill="#1A1A1A"/>
<path fill-rule="evenodd" clip-rule="evenodd" d="M51.233 120.284C55.6327 119.903 60.0847 119.914 64.9304 119.693C65.84 119.609 66.867 119.533 67.9289 119.21C62.8677 119.693 58.2308 119.585 53.7571 119.853C52.704 120.245 51.901 120.104 51.233 120.286V120.284Z" fill="#1A1A1A"/>
<path fill-rule="evenodd" clip-rule="evenodd" d="M139.425 129.427C133.813 129.07 128.245 128.871 123.217 128.546C119.187 132.577 115.205 136.678 111.319 140.853C116.291 141.353 121.589 141.835 126.866 142.447C131.026 137.955 135.33 133.497 139.423 129.425L139.425 129.427Z" fill="#1A1A1A"/>
<path fill-rule="evenodd" clip-rule="evenodd" d="M120.771 128.405C115.749 128.325 110.982 128.223 106.506 128.031C102.874 131.757 98.8792 135.659 95.3607 139.379C99.5951 139.794 104.195 140.117 108.945 140.504C112.792 136.442 116.846 132.337 120.771 128.407V128.405Z" fill="#1A1A1A"/>
<path fill-rule="evenodd" clip-rule="evenodd" d="M104.349 128.014C99.9149 127.905 95.748 127.912 91.6377 127.815C88.1475 131.136 84.666 134.67 81.2847 138.31C85.1447 138.52 89.1376 138.799 93.3001 139.286C96.7642 135.583 100.705 131.664 104.352 128.011L104.349 128.014Z" fill="#1A1A1A"/>
<path fill-rule="evenodd" clip-rule="evenodd" d="M89.7229 127.696C85.8084 127.615 82.1594 127.685 78.617 127.57C75.2683 130.779 72.0109 133.978 68.845 137.152C72.1807 137.299 75.6708 137.719 79.4091 138.124C82.8165 134.648 86.2958 131.058 89.7229 127.696Z" fill="#1A1A1A"/>
<path fill-rule="evenodd" clip-rule="evenodd" d="M76.9089 127.49C73.3991 127.557 70.3441 127.393 67.1434 127.423C63.9883 130.468 60.9202 133.398 57.9479 136.38C60.9007 136.646 63.9818 136.897 67.2456 137.1C70.4094 133.869 73.6276 130.814 76.9089 127.49Z" fill="#1A1A1A"/>
<path fill-rule="evenodd" clip-rule="evenodd" d="M65.679 127.315C62.5456 127.28 59.7061 127.269 56.8708 127.167C53.9638 129.972 51.1525 132.744 48.3282 135.572C50.861 136.062 53.6091 136.185 56.4857 136.384C59.5712 133.322 62.4673 130.364 65.6811 127.315H65.679Z" fill="#1A1A1A"/>
<path fill-rule="evenodd" clip-rule="evenodd" d="M55.5479 127.2C52.902 127.2 50.2126 127.319 47.9191 127.256C45.2645 129.738 42.5446 132.396 39.8574 134.941C42.166 135.077 44.5421 135.27 47.0509 135.566C49.7643 132.755 52.6953 130 55.5479 127.2Z" fill="#1A1A1A"/>
<path fill-rule="evenodd" clip-rule="evenodd" d="M153.486 114.473C147.583 114.536 141.886 114.621 136.564 114.753C132.68 118.643 128.807 122.385 124.981 126.243C130.217 126.419 135.724 126.681 141.253 126.919C145.398 122.733 149.556 118.49 153.486 114.476V114.473Z" fill="#1A1A1A"/>
<path fill-rule="evenodd" clip-rule="evenodd" d="M134.079 114.928C128.883 114.945 123.854 115.172 119.176 115.326C115.499 118.899 111.795 122.472 108.229 126.021C112.779 125.975 117.655 126.049 122.568 126.276C126.324 122.329 130.162 118.631 134.079 114.928Z" fill="#1A1A1A"/>
<path fill-rule="evenodd" clip-rule="evenodd" d="M116.811 115.365C112.204 115.456 107.744 115.638 103.531 115.826C100.174 119.052 96.7554 122.381 93.3327 125.88C97.369 125.908 101.601 125.988 105.966 126.055C109.524 122.454 113.227 118.814 116.809 115.365H116.811Z" fill="#1A1A1A"/>
<path fill-rule="evenodd" clip-rule="evenodd" d="M101.597 115.848C97.4061 116.086 93.7875 116.159 89.9644 116.376C86.57 119.529 83.4889 122.556 80.2272 125.707C83.8697 125.724 87.5753 125.685 91.5441 125.763C94.7514 122.413 98.1763 119.085 101.597 115.848Z" fill="#1A1A1A"/>
<path fill-rule="evenodd" clip-rule="evenodd" d="M88.0039 116.54C84.5224 116.607 81.1128 116.705 77.7205 116.904C74.5785 119.931 71.5714 122.805 68.6556 125.633C71.6954 125.787 74.9658 125.808 78.5256 125.731C81.6742 122.567 84.8249 119.602 88.0039 116.54Z" fill="#1A1A1A"/>
<path fill-rule="evenodd" clip-rule="evenodd" d="M76.0537 116.956C72.7355 117.183 69.8176 117.308 67.0171 117.421C64.0514 120.152 61.0181 122.907 58.3004 125.577C61.0725 125.622 63.9709 125.713 67.1499 125.633C70.0678 122.816 73.0227 119.948 76.0537 116.956Z" fill="#1A1A1A"/>
<path fill-rule="evenodd" clip-rule="evenodd" d="M65.2721 117.75C62.3215 117.994 59.7104 118.131 57.0493 118.289C54.3359 120.855 51.4985 123.502 48.8765 126.15C51.381 125.958 54.016 125.923 56.7664 125.811C59.4928 123.248 62.204 120.688 65.2721 117.752V117.75Z" fill="#1A1A1A"/>
<path fill-rule="evenodd" clip-rule="evenodd" d="M146.591 102.448C141.188 102.755 136.074 102.965 131.131 103.368C127.466 106.861 123.928 110.241 120.351 113.881C125.23 113.552 130.108 113.517 135.395 113.363C138.988 109.717 142.739 106.077 146.588 102.448H146.591Z" fill="#1A1A1A"/>
<path fill-rule="evenodd" clip-rule="evenodd" d="M128.657 103.716C123.817 103.937 119.37 104.352 114.883 104.824C111.473 107.96 108.17 111.156 104.789 114.411C109.147 114.047 113.39 114.036 118.103 113.889C121.654 110.418 125.223 106.886 128.657 103.716Z" fill="#1A1A1A"/>
<path fill-rule="evenodd" clip-rule="evenodd" d="M112.812 104.999C108.551 105.328 104.602 105.748 100.603 106.181C97.3647 109.111 94.2379 112.162 90.9806 115.222C94.8363 114.831 98.6224 114.75 102.857 114.439C106.031 111.372 109.406 108.209 112.812 104.999Z" fill="#1A1A1A"/>
<path fill-rule="evenodd" clip-rule="evenodd" d="M98.655 106.322C94.8863 106.657 91.3374 106.86 87.8146 107.196C84.7727 110.035 81.8199 112.842 78.8019 115.72C82.192 115.545 85.5364 115.395 89.2899 115.227C92.4972 112.206 95.4695 109.269 98.655 106.322Z" fill="#1A1A1A"/>
<path fill-rule="evenodd" clip-rule="evenodd" d="M86.063 107.408C82.8818 107.618 79.7136 107.919 76.4541 108.38C73.5928 110.992 70.7271 113.714 67.9441 116.319C70.9077 116.176 73.9801 115.882 77.1395 115.802C80.2184 112.922 83.1799 110.191 86.063 107.408Z" fill="#1A1A1A"/>
<path fill-rule="evenodd" clip-rule="evenodd" d="M66.7169 110.412C63.9187 110.758 61.2379 111.076 58.777 111.292C56.2485 113.614 53.5504 116.075 50.948 118.518C53.422 118.297 55.97 118.239 58.5115 118.081C61.0943 115.547 63.886 112.987 66.7169 110.414V110.412Z" fill="#1A1A1A"/>
<path fill-rule="evenodd" clip-rule="evenodd" d="M57.2669 111.422C54.869 111.632 52.5821 111.786 50.3627 112.065C48.0388 114.303 45.6954 116.393 43.4607 118.579C45.4234 118.55 47.6646 118.39 49.8035 118.323C52.1927 116.096 54.7842 113.671 57.2669 111.422Z" fill="#1A1A1A"/>
<path fill-rule="evenodd" clip-rule="evenodd" d="M140.746 92.5435C135.885 93.1169 131.198 93.6687 126.474 94.2314C123.128 97.3432 119.862 100.36 116.424 103.524C121.059 102.922 125.408 102.66 130.367 102.126C133.755 98.8494 137.276 95.7635 140.746 92.5435Z" fill="#1A1A1A"/>
<path fill-rule="evenodd" clip-rule="evenodd" d="M124.303 94.4586C119.975 94.9303 115.627 95.5427 111.495 96.0599C108.429 98.9511 105.235 101.87 102.034 104.863C106.081 104.415 109.989 104.101 114.356 103.738C117.788 100.524 121.065 97.5358 124.303 94.4564V94.4586Z" fill="#1A1A1A"/>
<path fill-rule="evenodd" clip-rule="evenodd" d="M109.517 96.2915C105.675 96.7286 101.906 97.2458 98.0414 97.8258C95.0974 100.587 92.2839 103.115 89.2094 105.943C92.7278 105.608 96.3203 105.324 100.1 105.073C103.24 102.063 106.486 99.0744 109.517 96.2915Z" fill="#1A1A1A"/>
<path fill-rule="evenodd" clip-rule="evenodd" d="M96.3594 98.0876C92.9476 98.6092 89.5379 99.0593 86.3001 99.4964C83.4867 102.076 80.5448 104.664 77.7488 107.205C80.9604 106.876 84.122 106.529 87.4556 106.153C90.5388 103.363 93.4567 100.723 96.3594 98.0876Z" fill="#1A1A1A"/>
<path fill-rule="evenodd" clip-rule="evenodd" d="M75.8645 101.717C72.9292 102.188 70.2114 102.513 67.6591 102.842C65.0219 105.255 62.3607 107.631 59.8606 110.061C62.3716 109.799 64.9414 109.54 67.7918 109.176C70.4443 106.711 73.0858 104.292 75.8645 101.719V101.717Z" fill="#1A1A1A"/>
<path fill-rule="evenodd" clip-rule="evenodd" d="M65.766 103.567C63.168 103.913 60.8528 104.277 58.4919 104.714C56.0375 106.899 53.6288 109.063 51.0503 111.392C53.2654 111.102 55.6611 110.92 58.0568 110.721C60.5656 108.323 63.1158 105.949 65.7682 103.565L65.766 103.567Z" fill="#1A1A1A"/>
<path fill-rule="evenodd" clip-rule="evenodd" d="M151.175 81.0461C146.051 81.8489 141.212 82.5652 136.56 83.3681C133.217 86.1467 130.047 89.0031 126.618 92.1323C131.307 91.416 136.042 90.9053 140.879 90.2799C144.328 87.0945 147.733 84.0714 151.173 81.0439L151.175 81.0461Z" fill="#1A1A1A"/>
<path fill-rule="evenodd" clip-rule="evenodd" d="M134.351 83.5997C129.771 84.3874 125.397 85.0019 121.106 85.7442C118.134 88.499 115.02 91.1564 111.865 94.0431C116.028 93.4415 120.325 92.9135 124.67 92.2535C127.854 89.3624 131.035 86.5449 134.351 83.5997Z" fill="#1A1A1A"/>
<path fill-rule="evenodd" clip-rule="evenodd" d="M146.214 73.3618C141.555 74.1819 137.09 75.0821 132.726 75.8958C129.586 78.6722 126.515 81.3361 123.441 84.0086C127.56 83.3032 132.031 82.6215 136.723 81.8252C139.821 79.0704 143.055 76.2226 146.216 73.3618H146.214Z" fill="#1A1A1A"/>
<path fill-rule="evenodd" clip-rule="evenodd" d="M196.887 76.2767C190.185 77.2007 183.945 78.0598 178.009 78.6765C174.059 82.0762 170.443 85.5646 166.944 88.8365C172.706 88.354 178.842 87.6615 185.348 86.9625C189.049 83.433 192.898 79.8559 196.885 76.2788L196.887 76.2767Z" fill="#1A1A1A"/>
<path fill-rule="evenodd" clip-rule="evenodd" d="M16.0332 142.24C14.6101 141.848 13.3068 141.433 12.0621 141.097C10.1299 143.006 8.13243 144.953 6.23938 147.096C7.20114 147.596 8.33479 148.197 9.53155 148.743C11.5987 146.659 13.8225 144.38 16.0332 142.24Z" fill="#1A1A1A"/>
<path fill-rule="evenodd" clip-rule="evenodd" d="M21.3642 143.586C19.6953 143.194 18.1482 142.768 16.662 142.383C14.3926 144.676 12.2253 146.882 10.1604 148.976C11.3615 149.634 12.6845 150.249 14.1293 150.878C16.4793 148.442 18.9294 145.949 21.3642 143.586Z" fill="#1A1A1A"/>
<path fill-rule="evenodd" clip-rule="evenodd" d="M27.5591 144.99C25.6443 144.65 23.9035 144.179 22.2259 143.7C19.6801 146.273 17.23 148.71 14.9409 151.091C16.5076 151.597 18.0829 152.192 19.9521 152.664C22.4652 150.097 25.0785 147.518 27.5612 144.99H27.5591Z" fill="#1A1A1A"/>
<path fill-rule="evenodd" clip-rule="evenodd" d="M35.4686 146.568C33.2295 146.085 31.0558 145.574 28.8973 145.233C26.358 147.749 23.6968 150.571 21.1271 153.235C23.0702 153.763 24.9654 154.536 26.9259 155.302C29.7154 152.302 32.6616 149.452 35.4686 146.566V146.568Z" fill="#1A1A1A"/>
<path fill-rule="evenodd" clip-rule="evenodd" d="M44.0612 147.987C41.4436 147.596 38.839 147.204 36.6457 146.704C33.7822 149.543 30.8382 152.43 27.9921 155.406C30.205 156.126 32.5397 156.752 34.9507 157.433C37.8359 154.343 40.8735 151.22 44.0612 147.987Z" fill="#1A1A1A"/>
<path fill-rule="evenodd" clip-rule="evenodd" d="M53.8615 149.857C50.8479 149.392 48.0801 148.868 45.4386 148.312C42.1399 151.657 39.0501 154.871 36.1648 157.916C38.5888 158.608 41.2129 159.472 43.9067 160.283C47.2903 156.71 50.4192 153.428 53.8615 149.855V149.857Z" fill="#1A1A1A"/>
<path fill-rule="evenodd" clip-rule="evenodd" d="M64.9261 152.179C61.499 151.595 58.3157 150.935 55.2106 150.305C51.8902 153.832 48.5871 157.228 45.2623 160.738C48.1084 161.664 51.1482 162.566 54.2619 163.475C57.7826 159.64 61.449 155.797 64.9261 152.179Z" fill="#1A1A1A"/>
<path fill-rule="evenodd" clip-rule="evenodd" d="M78.9238 154.207C74.9898 153.423 71.2233 152.837 67.72 152.326C64.1254 155.905 60.4786 159.822 56.9057 163.646C60.2196 164.436 63.7968 165.286 67.3653 166.464C71.2951 162.153 75.0355 158.149 78.926 154.207H78.9238Z" fill="#1A1A1A"/>
<path fill-rule="evenodd" clip-rule="evenodd" d="M93.3175 156.751C88.8852 155.888 84.5203 154.912 80.6906 154.157C76.7653 158.275 72.7921 162.335 69.0408 166.544C72.8203 167.697 76.8197 168.956 81.1846 169.987C85.1839 165.544 89.2159 161.233 93.3175 156.754V156.751Z" fill="#1A1A1A"/>
<path fill-rule="evenodd" clip-rule="evenodd" d="M110.427 159.803C105.294 158.911 100.202 158.139 95.8046 156.873C91.6638 161.434 87.4316 166.035 83.5041 170.515C87.869 171.776 92.4536 173.059 97.3081 174.28C101.747 169.305 105.997 164.596 110.429 159.803H110.427Z" fill="#1A1A1A"/>
<path fill-rule="evenodd" clip-rule="evenodd" d="M129.812 163.897C123.78 162.653 118.234 161.54 113.02 160.359C108.545 165.271 104.023 170.179 99.6059 175.297C105.046 176.801 110.063 178.677 115.821 180.146C120.577 174.682 125.28 169.242 129.812 163.897Z" fill="#1A1A1A"/>
<path fill-rule="evenodd" clip-rule="evenodd" d="M152.217 169.019C145.163 167.639 138.912 166.334 132.608 164.964C127.904 170.359 123.21 175.851 118.51 181.22C124.396 183.163 130.63 185.065 137.171 187.013C142.345 180.713 147.263 174.791 152.217 169.019Z" fill="#1A1A1A"/>
<path fill-rule="evenodd" clip-rule="evenodd" d="M385.424 137.834C380.983 134.289 376.635 130.712 372.662 127.447C366.243 131.076 359.852 134.456 353.399 138.288C357 142.043 360.566 145.979 364.877 150.006C371.835 145.899 378.789 141.816 385.422 137.834H385.424Z" fill="#1A1A1A"/>
<path fill-rule="evenodd" clip-rule="evenodd" d="M167.579 130.558C165.813 128.782 164.087 127.129 162.292 125.713C159.792 127.462 157.187 129.325 154.615 131.097C156.212 132.779 157.72 134.586 159.341 136.618C162.109 134.551 164.87 132.5 167.582 130.558H167.579Z" fill="#1A1A1A"/>
<path fill-rule="evenodd" clip-rule="evenodd" d="M97.6584 64.9222C96.9708 63.8748 96.3398 62.7842 95.7589 61.6913C93.509 63.5502 91.1067 65.5627 88.748 67.5233C89.1158 68.7806 89.6358 69.9297 90.2233 71.161C92.6908 69.0901 95.1996 66.9845 97.6563 64.9222H97.6584Z" fill="#1A1A1A"/>
<path fill-rule="evenodd" clip-rule="evenodd" d="M462.913 246.62C457.362 242.281 452.126 238.124 447.041 234.465C440.42 236.499 433.923 238.908 427.106 241.206C432.049 245.205 436.915 249.527 441.915 254.183C449.026 251.513 456.3 249.107 462.915 246.618L462.913 246.62Z" fill="#1A1A1A"/>
<path fill-rule="evenodd" clip-rule="evenodd" d="M113.503 78.9968C112.957 78.3974 112.527 77.8131 112.098 77.2505C110.636 78.3108 109.165 79.3517 107.744 80.3904C108.072 81.0332 108.412 81.7884 108.793 82.4203C110.366 81.2842 111.88 80.1567 113.503 78.9947V78.9968Z" fill="#1A1A1A"/>
<path fill-rule="evenodd" clip-rule="evenodd" d="M163.889 51.5725C162.571 51.012 161.322 50.5164 160.086 50.0598C158.221 51.3258 156.358 52.635 154.452 54.0156C155.492 54.641 156.635 55.1972 157.934 55.9156C159.875 54.403 161.883 52.9899 163.889 51.5746V51.5725Z" fill="#1A1A1A"/>
<path fill-rule="evenodd" clip-rule="evenodd" d="M444.335 102.926C439.108 100.78 434.249 98.9057 429.632 97.1398C423.661 99.6111 418.008 101.979 412.599 104.489C416.77 106.568 421.163 108.698 426.079 111.316C432.389 108.38 438.52 105.467 444.335 102.926Z" fill="#1A1A1A"/>
<path fill-rule="evenodd" clip-rule="evenodd" d="M142.515 48.2269C141.719 47.8525 141.122 47.3613 140.491 46.9913C138.973 47.9824 137.526 49.1012 136.063 50.181C136.599 50.6549 137.093 51.2154 137.739 51.6482C139.195 50.5381 140.853 49.363 142.515 48.2269Z" fill="#1A1A1A"/>
<path fill-rule="evenodd" clip-rule="evenodd" d="M109.289 40.0513C108.867 39.744 108.405 39.5082 107.99 39.2247C106.895 40.0708 105.696 40.9451 104.645 41.7522C105.009 42.0812 105.324 42.4144 105.648 42.7953C106.847 41.8929 108.092 40.9732 109.289 40.0513Z" fill="#1A1A1A"/>
<path fill-rule="evenodd" clip-rule="evenodd" d="M29.0646 123.378C28.8861 122.924 28.6511 122.469 28.5293 122.032C27.6546 122.629 26.8386 123.311 25.9639 123.934C26.0313 124.462 26.1532 124.962 26.275 125.462C27.2607 124.763 28.1376 124.071 29.0646 123.378Z" fill="#1A1A1A"/>
<path fill-rule="evenodd" clip-rule="evenodd" d="M466.927 173.371C463.206 171.594 460.195 169.917 457.018 168.312C452.353 169.63 447.886 170.822 443.434 172.112C446.164 173.758 449.256 175.678 452.529 177.496C457.405 176.171 462.181 174.73 466.927 173.371Z" fill="#1A1A1A"/>
<path fill-rule="evenodd" clip-rule="evenodd" d="M193.112 42.9771C191.806 42.5919 190.472 42.3279 189.343 41.934C187.526 43.1177 185.607 44.3469 183.888 45.4873C184.982 45.9677 186.007 46.3767 187.217 46.8268C189.025 45.5869 191.14 44.2192 193.112 42.9771Z" fill="#1A1A1A"/>
<path fill-rule="evenodd" clip-rule="evenodd" d="M145.002 13.7154C144.173 13.5618 143.344 13.4298 142.53 13.3887C141.164 14.2543 139.863 15.2432 138.555 16.1911C139.329 16.3252 140.108 16.4724 140.89 16.6433C142.287 15.6219 143.644 14.6503 145.002 13.7154Z" fill="#1A1A1A"/>
<path fill-rule="evenodd" clip-rule="evenodd" d="M124.361 49.5621C123.608 49.324 122.867 49.1552 122.172 48.9432C121.004 49.7828 119.681 50.7047 118.454 51.5356C119.152 51.7823 119.796 52.0117 120.499 52.2628C121.822 51.3452 123.043 50.4818 124.364 49.5621H124.361Z" fill="#1A1A1A"/>
<path fill-rule="evenodd" clip-rule="evenodd" d="M106.621 68.8693C105.868 68.6226 105.163 68.3391 104.471 68.1573C103.37 68.9039 102.16 69.7046 100.998 70.449C101.697 70.6957 102.395 70.9554 103.046 71.2497C104.201 70.4642 105.413 69.6743 106.621 68.8693Z" fill="#1A1A1A"/>
<path fill-rule="evenodd" clip-rule="evenodd" d="M223.751 79.1959C222.117 78.7696 220.55 78.3346 219.044 77.9321C217.062 78.999 215.132 80.0139 213.041 81.1305C214.588 81.4833 216.107 81.9658 217.623 82.4138C219.595 81.3145 221.753 80.2238 223.751 79.1959Z" fill="#1A1A1A"/>
<path fill-rule="evenodd" clip-rule="evenodd" d="M88.3912 85.768C87.6928 85.5234 86.9878 85.201 86.3459 84.9435C85.2644 85.6641 84.2896 86.3241 83.2582 87.0274C83.8457 87.3001 84.4376 87.6074 85.086 87.9363C86.1696 87.1875 87.2576 86.534 88.3912 85.7658V85.768Z" fill="#1A1A1A"/>
<path fill-rule="evenodd" clip-rule="evenodd" d="M97.2559 57.1231C96.6445 56.9651 96.0461 56.9045 95.439 56.792C94.5491 57.3979 93.6156 58.0752 92.7191 58.6444C93.2196 58.7526 93.8288 58.9084 94.338 59.0815C95.3259 58.3998 96.2637 57.742 97.2559 57.1253V57.1231Z" fill="#1A1A1A"/>
<path fill-rule="evenodd" clip-rule="evenodd" d="M546 213.243C541.035 211.75 535.784 209.977 530.477 208.439C525.562 209.49 520.252 210.239 515.261 211.159C520.033 212.617 525.2 214.327 529.974 216.021C535.551 215.084 540.71 214.221 546 213.245V213.243Z" fill="#1A1A1A"/>
<path fill-rule="evenodd" clip-rule="evenodd" d="M164.4 22.6376C163.306 22.6809 162.32 22.6917 161.335 22.7004C160.179 23.434 158.974 24.2 157.729 25.0202C158.71 24.9748 159.609 25.057 160.599 25.0483C161.844 24.2303 163.091 23.4037 164.398 22.6376H164.4Z" fill="#1A1A1A"/>
<path fill-rule="evenodd" clip-rule="evenodd" d="M5.7215 143.389C5.38641 143.14 5.05132 142.882 4.83155 142.644C4.20707 143.043 3.52383 143.497 2.95374 143.861C3.1735 144.127 3.44985 144.354 3.72619 144.64C4.40943 144.179 5.03827 143.793 5.7215 143.391V143.389Z" fill="#1A1A1A"/>
<path fill-rule="evenodd" clip-rule="evenodd" d="M300.767 116.865C298.296 116.263 295.648 115.904 293.126 115.359C290.641 116.222 288.38 116.977 286.158 117.864C288.447 118.284 290.926 118.875 293.513 119.466C295.93 118.574 298.413 117.717 300.765 116.865H300.767Z" fill="#1A1A1A"/>
<path fill-rule="evenodd" clip-rule="evenodd" d="M292.329 161.698C290.099 160.307 287.893 158.922 285.673 157.717C282.566 158.909 279.398 160.311 276.208 161.664C278.273 163.038 280.325 164.377 282.398 165.94C285.856 164.373 289.131 163.06 292.329 161.696V161.698Z" fill="#1A1A1A"/>
<path fill-rule="evenodd" clip-rule="evenodd" d="M238.325 106.335C236.315 105.188 234.461 104.164 232.74 103.167C230.094 104.632 227.337 106.188 224.582 107.772C226.314 108.834 227.861 110.111 229.791 111.208C232.72 109.566 235.516 107.932 238.325 106.335Z" fill="#1A1A1A"/>
</g>
<defs>
<clipPath id="clip0_2_1722">
<rect width="566" height="308" fill="white" transform="translate(-20)"/>
</clipPath>
</defs>
</svg>
